<svg class="img-fluid" id="outputsvg" xmlns="http://www.w3.org/2000/svg" width="209" height="197" viewBox="0 0 2090 1970"><g id="l2ApTaturBBZFyiSbF2vGbz" fill="rgb(255,255,255)" style="transform: none;"><g><path id="p1EDI8jaTq" d="M1158 1851 l-358 -96 0 -182 0 -181 112 -106 c62 -59 116 -105 120 -104 6 3 425 631 487 731 15 25 18 37 9 36 -7 -1 -174 -45 -370 -98z"></path><path id="p1Giqsf8Nv" d="M188 1591 c-92 -25 -169 -49 -173 -53 -5 -4 330 -1281 350 -1333 2 -5 4 315 4 713 1 397 -2 721 -6 721 -5 -1 -83 -22 -175 -48z"></path><path id="pQdWOfKvW" d="M1557 1160 c-114 -170 -207 -313 -207 -318 0 -4 121 -128 269 -276 l269 -269 91 23 c50 13 91 29 91 34 1 21 -295 1116 -301 1116 -3 0 -99 -139 -212 -310z"></path><path id="pCpyWQHqY" d="M800 445 c0 -226 4 -416 9 -423 6 -10 74 5 314 70 169 45 307 86 307 90 0 6 -457 496 -581 623 l-49 50 0 -410z"></path></g></g></svg>
