<?xml version="1.0" standalone="no"?>
<!DOCTYPE svg PUBLIC "-//W3C//DTD SVG 20010904//EN"
 "http://www.w3.org/TR/2001/REC-SVG-20010904/DTD/svg10.dtd">
<svg version="1.0" xmlns="http://www.w3.org/2000/svg"
 width="768.000000pt" height="768.000000pt" viewBox="0 0 768.000000 768.000000"
 preserveAspectRatio="xMidYMid meet">
<metadata>
Created by potrace 1.11, written by Peter Selinger 2001-2013
</metadata>
<g transform="translate(0.000000,768.000000) scale(0.100000,-0.100000)"
fill="white" stroke="none">
<path d="M3238 7025 c-2 -1 -37 -5 -78 -9 -176 -15 -333 -84 -459 -201 -169
-158 -336 -481 -506 -975 -46 -135 -132 -430 -149 -516 -3 -10 -23 -95 -46
-189 -23 -93 -43 -177 -45 -185 -24 -110 -191 -689 -235 -815 -12 -33 -23 -67
-25 -75 -5 -24 -100 -286 -139 -387 -59 -150 -134 -320 -199 -446 -47 -93 -63
-117 -76 -111 -89 38 -341 115 -409 125 -411 61 -757 -288 -671 -676 28 -126
103 -256 206 -360 119 -120 157 -142 564 -320 184 -81 359 -158 389 -172 30
-14 107 -48 170 -75 63 -28 143 -64 178 -79 34 -16 64 -29 66 -29 2 0 37 -15
78 -34 40 -18 152 -68 248 -111 96 -42 254 -112 350 -155 96 -43 279 -124 405
-180 127 -56 248 -111 270 -121 444 -202 526 -233 671 -254 21 -4 50 -8 64
-11 29 -6 236 -6 265 0 11 2 40 7 65 11 115 18 267 72 372 131 33 19 62 34 64
34 2 0 28 17 56 37 252 178 460 431 610 743 52 107 81 183 158 400 73 207 75
212 115 345 20 66 41 133 46 149 5 16 9 32 9 35 0 4 -67 7 -150 7 l-150 1 -36
-116 c-90 -288 -218 -635 -265 -716 -10 -16 -33 -58 -51 -92 -81 -152 -245
-337 -388 -438 -203 -143 -442 -217 -679 -209 -96 3 -122 6 -218 25 -45 9 -53
14 -69 47 -10 20 -27 75 -39 122 -30 117 -26 222 11 293 37 72 203 319 264
393 l50 62 -348 157 c-191 87 -376 171 -412 188 -36 16 -137 62 -225 102 -88
40 -185 84 -215 98 -123 56 -1058 481 -1097 499 l-42 18 45 85 c78 145 189
402 271 625 43 117 176 517 196 591 9 30 31 108 50 174 45 157 90 324 122 455
14 58 32 130 40 160 8 30 26 105 41 165 68 294 188 658 290 883 18 40 33 75
33 77 1 19 109 219 152 281 100 144 227 229 363 240 140 12 161 11 301 -21 39
-9 77 -18 85 -19 8 -1 26 -5 40 -9 14 -4 36 -9 50 -11 14 -2 63 -13 110 -25
47 -11 97 -22 110 -25 14 -2 90 -20 170 -39 394 -95 657 -158 675 -162 11 -2
85 -20 165 -40 269 -67 345 -85 365 -90 11 -2 85 -20 165 -40 80 -20 152 -38
160 -40 8 -2 89 -22 180 -45 91 -22 172 -43 180 -45 105 -25 282 -68 305 -75
17 -5 69 -19 118 -31 l87 -22 -72 -39 c-210 -114 -357 -281 -437 -498 -20 -54
-59 -201 -67 -250 -2 -14 -8 -52 -14 -85 -9 -57 -23 -154 -36 -258 -5 -44 -4
-48 13 -44 51 14 175 51 227 68 48 15 66 17 105 8 25 -6 57 -13 71 -15 14 -3
50 -9 80 -14 135 -25 375 -33 500 -18 184 23 352 95 466 200 173 159 267 454
209 655 -52 179 -202 332 -412 421 -42 18 -694 189 -793 208 -14 3 -48 12 -76
20 -28 8 -60 16 -70 18 -11 2 -39 9 -64 16 -25 7 -52 13 -60 15 -8 2 -35 8
-60 15 -25 6 -63 15 -85 20 -22 6 -58 14 -80 20 -22 6 -51 13 -65 16 -14 3
-34 8 -45 11 -11 4 -27 8 -35 9 -8 2 -31 7 -50 13 -19 6 -84 22 -145 36 -60
15 -256 63 -435 107 -179 44 -333 81 -343 83 -10 2 -26 6 -35 9 -9 3 -28 7
-42 10 -14 3 -34 7 -45 10 -31 8 -181 44 -275 65 -47 11 -143 34 -215 51 -71
18 -139 34 -150 36 -11 2 -90 20 -175 40 -85 19 -164 37 -175 39 -11 2 -54 10
-95 19 -65 14 -204 27 -212 21z m3825 -1243 c112 -50 151 -149 122 -307 -11
-56 -57 -154 -91 -193 -140 -161 -468 -202 -867 -110 l-88 20 6 41 c41 244
287 475 589 552 119 31 257 30 329 -3z m-6114 -2857 c96 -31 233 -82 306 -115
28 -12 64 -29 82 -36 17 -8 70 -32 118 -54 89 -41 108 -49 210 -96 177 -79
278 -125 345 -156 41 -19 113 -52 160 -73 47 -21 132 -59 189 -86 57 -27 105
-49 107 -49 2 0 47 -20 100 -45 53 -25 98 -45 100 -45 2 0 52 -22 110 -50 58
-27 107 -50 109 -50 2 0 43 -18 92 -41 151 -70 406 -186 446 -202 41 -18 42
-20 24 -39 -11 -12 -86 -123 -119 -178 -15 -26 -45 -108 -54 -151 -9 -45 -12
-174 -5 -226 9 -61 28 -64 -174 27 -27 13 -156 70 -285 128 -129 57 -255 114
-280 125 -25 11 -47 21 -50 22 -15 5 -72 30 -128 55 -35 17 -65 30 -67 30 -2
0 -32 13 -67 29 -35 16 -164 74 -288 129 -124 54 -245 108 -270 119 -25 12
-216 96 -425 188 -555 244 -538 235 -633 335 -111 115 -154 269 -103 368 26
51 78 112 96 112 7 0 15 4 17 9 2 4 28 17 58 29 73 27 167 23 279 -13z"/>
<path d="M3480 4589 c-90 -11 -119 -18 -199 -49 -196 -76 -333 -229 -371 -413
-14 -68 -6 -177 16 -221 8 -16 14 -33 14 -38 0 -15 43 -71 89 -117 80 -79 196
-142 386 -211 226 -82 302 -126 329 -192 36 -88 -33 -199 -144 -232 -62 -19
-215 -13 -317 12 -131 34 -245 97 -340 191 l-52 51 -98 -116 c-54 -64 -106
-125 -115 -136 -16 -19 -15 -22 25 -62 131 -133 292 -214 521 -262 89 -19 289
-24 381 -11 204 31 378 140 474 299 91 153 98 359 16 487 -77 121 -202 199
-499 311 -247 93 -302 133 -298 218 3 70 70 140 155 163 42 11 140 13 192 4
64 -11 90 -18 100 -24 6 -3 12 -6 15 -6 17 -2 90 -31 118 -47 67 -37 88 -52
133 -95 l46 -44 69 77 c38 42 74 82 79 89 6 6 28 30 49 53 l39 41 -55 53
c-104 98 -253 173 -418 209 -96 21 -252 29 -340 18z"/>
<path d="M4694 4528 c3 -24 8 -95 11 -158 3 -63 8 -140 10 -170 3 -30 7 -93
10 -140 6 -94 11 -168 21 -310 3 -52 8 -120 9 -150 9 -152 25 -395 30 -450 2
-25 7 -94 11 -155 7 -116 11 -177 13 -185 1 -3 88 -5 194 -5 167 0 196 2 210
17 9 9 17 20 17 23 0 9 236 513 261 558 6 10 37 76 69 145 32 70 88 190 125
267 37 77 71 151 76 164 5 13 12 22 14 19 5 -5 11 -127 20 -408 3 -96 7 -218
10 -271 2 -52 7 -187 10 -299 3 -113 8 -207 11 -209 7 -7 383 -8 393 -1 4 3
169 325 366 715 197 391 396 784 442 875 45 90 83 166 83 167 0 2 -97 3 -215
3 -214 0 -216 0 -224 -22 -5 -13 -31 -70 -59 -128 -27 -58 -75 -161 -107 -230
-31 -69 -85 -186 -120 -260 -34 -74 -102 -220 -150 -325 -48 -104 -100 -217
-115 -250 l-29 -60 -1 55 c-1 30 -3 84 -5 120 -1 36 -6 137 -9 225 -11 265
-15 353 -22 510 -6 139 -10 233 -13 328 l-1 37 -148 0 -148 0 -46 -97 c-26
-54 -88 -183 -138 -288 -51 -104 -110 -228 -132 -275 -23 -47 -90 -186 -151
-310 -60 -124 -116 -240 -124 -259 -8 -18 -16 -31 -18 -29 -3 2 -7 116 -10
254 -3 137 -8 375 -11 529 -5 265 -11 451 -13 468 -1 4 -93 7 -206 7 l-206 0
5 -42z"/>
<path d="M4106 3713 c-2 -2 12 -19 30 -38 18 -19 48 -65 66 -103 l34 -67 207
-1 206 -1 -5 101 c-3 56 -8 103 -11 106 -5 5 -522 8 -527 3z"/>
</g>
</svg>
