<?xml version="1.0" standalone="no"?>
<!DOCTYPE svg PUBLIC "-//W3C//DTD SVG 20010904//EN"
 "http://www.w3.org/TR/2001/REC-SVG-20010904/DTD/svg10.dtd">
<svg version="1.0" xmlns="http://www.w3.org/2000/svg"
 width="256.000000pt" height="256.000000pt" viewBox="0 0 256.000000 256.000000"
 preserveAspectRatio="xMidYMid meet">
<metadata>
Created by potrace 1.11, written by Peter Selinger 2001-2013
</metadata>
<g transform="translate(0.000000,256.000000) scale(0.100000,-0.100000)"
fill="white" stroke="none">
<path d="M1040 2541 c0 -6 -18 -50 -40 -97 -22 -47 -40 -87 -40 -89 0 -2 -16
-36 -35 -77 -34 -74 -35 -74 -92 -93 -32 -10 -60 -19 -63 -20 -3 0 -72 -23
-153 -49 -123 -40 -147 -51 -142 -65 4 -9 11 -32 17 -51 9 -35 33 -108 48
-145 18 -46 70 -212 70 -222 0 -6 -23 -60 -51 -119 -28 -60 -64 -137 -80 -171
-15 -33 -50 -108 -77 -165 -139 -291 -172 -362 -172 -373 0 -7 16 -20 35 -29
30 -15 40 -30 36 -58 -3 -21 -12 -120 -16 -168 -3 -30 -6 -67 -8 -82 -3 -19 0
-26 12 -26 9 0 32 -2 51 -5 19 -3 69 -9 110 -12 41 -3 95 -8 120 -11 25 -2 60
-6 78 -8 17 -2 32 0 32 3 0 4 -23 24 -50 44 -28 21 -50 43 -51 50 0 6 -2 22
-3 34 -2 15 22 53 71 115 40 50 76 94 81 97 4 3 27 31 52 61 25 30 48 57 53
58 10 5 23 19 87 92 30 35 74 86 98 112 23 27 42 52 41 56 0 4 -28 20 -62 36
-73 34 -184 120 -224 174 -15 20 -30 39 -33 42 -10 8 -57 113 -70 153 -52 166
-8 410 97 537 48 59 117 120 163 146 19 10 42 24 50 31 27 21 152 61 245 78
60 12 125 16 201 13 62 -1 112 -2 111 -1 -7 6 -453 204 -472 209 -16 4 -25 2
-25 -5z"/>
<path d="M1240 2290 c-170 -34 -310 -107 -406 -209 -61 -64 -123 -184 -139
-268 -11 -56 -5 -189 10 -243 8 -30 17 -60 18 -65 7 -30 70 -126 108 -166 89
-92 144 -125 357 -215 86 -36 176 -74 200 -85 23 -10 43 -18 45 -18 10 2 115
-59 141 -81 73 -64 67 -188 -10 -249 -56 -44 -192 -64 -301 -46 -51 9 -167 48
-171 57 -2 5 -9 8 -16 8 -16 0 -156 87 -179 111 -10 10 -22 19 -27 19 -7 0
-49 -46 -115 -127 -5 -7 -17 -20 -25 -30 -79 -92 -118 -146 -114 -156 10 -24
151 -123 233 -164 69 -35 154 -67 206 -79 6 -1 29 -7 51 -13 156 -42 422 -29
567 28 126 50 263 148 314 227 20 30 67 118 69 129 1 6 9 33 19 60 16 48 23
207 12 260 -27 121 -59 185 -129 256 -54 56 -138 119 -157 119 -6 0 -11 5 -11
10 0 6 -5 10 -12 10 -6 0 -30 9 -52 19 -23 11 -88 38 -146 61 -58 23 -124 50
-147 61 -24 10 -45 19 -47 19 -23 0 -167 81 -196 110 -42 42 -51 74 -37 130
23 91 95 132 234 136 134 4 233 -28 361 -115 l60 -40 28 37 c16 20 33 42 39
48 5 7 17 20 25 31 8 10 41 51 74 91 35 43 56 78 53 87 -7 18 -112 100 -170
133 -60 34 -152 72 -227 94 -75 22 -316 33 -390 18z"/>
<path d="M2070 2027 c0 -14 -91 -140 -129 -179 -9 -9 -27 -31 -41 -49 -14 -18
-41 -49 -61 -69 -19 -19 -59 -82 -88 -140 -30 -58 -58 -111 -64 -118 -12 -15
-14 -13 53 -41 144 -60 283 -178 332 -281 26 -54 57 -166 58 -205 0 -11 1 -47
1 -80 3 -108 -22 -209 -75 -310 -28 -53 -136 -175 -155 -175 -6 0 -11 -4 -11
-10 0 -5 -5 -10 -11 -10 -7 0 -20 -9 -30 -21 -10 -11 -24 -22 -31 -23 -7 -2
-39 -15 -70 -29 -32 -15 -69 -29 -83 -33 -14 -3 -28 -10 -31 -15 -3 -5 -9 -7
-13 -4 -5 2 -23 0 -42 -6 -19 -5 -59 -12 -89 -14 -30 -2 -56 -5 -57 -5 -2 -1
-40 -2 -85 -2 -95 0 -181 8 -242 23 -22 5 -50 12 -62 14 -12 3 -40 12 -64 20
-24 8 -45 14 -47 12 -2 -2 70 -65 159 -139 l162 -135 20 26 c11 14 23 28 26
31 3 3 24 28 45 55 53 66 54 67 100 60 22 -4 51 -8 65 -10 14 -3 36 -7 50 -10
14 -3 63 -12 110 -20 47 -9 92 -17 100 -20 8 -2 31 -7 50 -10 19 -3 71 -12
115 -21 76 -13 114 -20 159 -26 10 -2 20 4 22 12 1 8 12 62 23 120 22 115 32
167 36 190 1 8 6 33 10 56 l7 41 65 13 c35 7 66 18 69 24 2 6 -3 43 -12 81 -8
39 -17 79 -19 90 -2 11 -13 63 -25 115 -28 124 -25 110 -50 230 -12 58 -26
123 -32 145 -6 22 -12 51 -14 65 -2 14 -7 36 -11 50 -27 102 -27 100 32 251
30 78 54 142 53 143 -2 1 -18 9 -35 19 -18 10 -33 16 -33 12 0 -3 -14 2 -31
10 -35 19 -35 18 12 165 16 51 29 98 29 105 0 6 -19 17 -42 24 -24 7 -51 15
-60 17 -11 3 -18 0 -18 -9z"/>
</g>
</svg>
